<?xml version="1.0" encoding="utf-8" standalone="no"?>
<!DOCTYPE svg PUBLIC "-//W3C//DTD SVG 1.1//EN"
  "http://www.w3.org/Graphics/SVG/1.1/DTD/svg11.dtd">
<svg xmlns:xlink="http://www.w3.org/1999/xlink" width="712.22975pt" height="568.676875pt" viewBox="0 0 712.22975 568.676875" xmlns="http://www.w3.org/2000/svg" version="1.1">
 <metadata>
  <rdf:RDF xmlns:dc="http://purl.org/dc/elements/1.1/" xmlns:cc="http://creativecommons.org/ns#" xmlns:rdf="http://www.w3.org/1999/02/22-rdf-syntax-ns#">
   <cc:Work>
    <dc:type rdf:resource="http://purl.org/dc/dcmitype/StillImage"/>
    <dc:date>2025-01-30T16:21:00.058311</dc:date>
    <dc:format>image/svg+xml</dc:format>
    <dc:creator>
     <cc:Agent>
      <dc:title>Matplotlib v3.8.3, https://matplotlib.org/</dc:title>
     </cc:Agent>
    </dc:creator>
   </cc:Work>
  </rdf:RDF>
 </metadata>
 <defs>
  <style type="text/css">*{stroke-linejoin: round; stroke-linecap: butt}</style>
 </defs>
 <g id="figure_1">
  <g id="patch_1">
   <path d="M 0 568.676875 
L 712.22975 568.676875 
L 712.22975 0 
L 0 0 
z
" style="fill: #ffffff"/>
  </g>
  <g id="axes_1">
   <g id="patch_2">
    <path d="M 48.018125 526.71875 
L 592.588125 526.71875 
L 592.588125 38.7 
L 48.018125 38.7 
z
" style="fill: #ffffff"/>
   </g>
   <g id="matplotlib.axis_1">
    <g id="xtick_1">
     <g id="line2d_1">
      <path d="M 89.378192 526.71875 
L 89.378192 38.7 
" clip-path="url(#p4a13d89945)" style="fill: none; stroke-dasharray: 2.96,1.28; stroke-dashoffset: 0; stroke: #cccccc; stroke-opacity: 0.3; stroke-width: 0.8"/>
     </g>
     <g id="text_1">
      <!-- 1200 -->
      <g style="fill: #262626" transform="translate(76.031942 542.308125) scale(0.12 -0.12)">
       <defs>
        <path id="ArialMT-31" d="M 2384 0 
L 1822 0 
L 1822 3584 
Q 1619 3391 1289 3197 
Q 959 3003 697 2906 
L 697 3450 
Q 1169 3672 1522 3987 
Q 1875 4303 2022 4600 
L 2384 4600 
L 2384 0 
z
" transform="scale(0.015625)"/>
        <path id="ArialMT-32" d="M 3222 541 
L 3222 0 
L 194 0 
Q 188 203 259 391 
Q 375 700 629 1000 
Q 884 1300 1366 1694 
Q 2113 2306 2375 2664 
Q 2638 3022 2638 3341 
Q 2638 3675 2398 3904 
Q 2159 4134 1775 4134 
Q 1369 4134 1125 3890 
Q 881 3647 878 3216 
L 300 3275 
Q 359 3922 746 4261 
Q 1134 4600 1788 4600 
Q 2447 4600 2831 4234 
Q 3216 3869 3216 3328 
Q 3216 3053 3103 2787 
Q 2991 2522 2730 2228 
Q 2469 1934 1863 1422 
Q 1356 997 1212 845 
Q 1069 694 975 541 
L 3222 541 
z
" transform="scale(0.015625)"/>
        <path id="ArialMT-30" d="M 266 2259 
Q 266 3072 433 3567 
Q 600 4063 929 4331 
Q 1259 4600 1759 4600 
Q 2128 4600 2406 4451 
Q 2684 4303 2865 4023 
Q 3047 3744 3150 3342 
Q 3253 2941 3253 2259 
Q 3253 1453 3087 958 
Q 2922 463 2592 192 
Q 2263 -78 1759 -78 
Q 1097 -78 719 397 
Q 266 969 266 2259 
z
M 844 2259 
Q 844 1131 1108 757 
Q 1372 384 1759 384 
Q 2147 384 2411 759 
Q 2675 1134 2675 2259 
Q 2675 3391 2411 3762 
Q 2147 4134 1753 4134 
Q 1366 4134 1134 3806 
Q 844 3388 844 2259 
z
" transform="scale(0.015625)"/>
       </defs>
       <use xlink:href="#ArialMT-31"/>
       <use xlink:href="#ArialMT-32" x="55.615234"/>
       <use xlink:href="#ArialMT-30" x="111.230469"/>
       <use xlink:href="#ArialMT-30" x="166.845703"/>
      </g>
     </g>
    </g>
    <g id="xtick_2">
     <g id="line2d_2">
      <path d="M 152.270476 526.71875 
L 152.270476 38.7 
" clip-path="url(#p4a13d89945)" style="fill: none; stroke-dasharray: 2.96,1.28; stroke-dashoffset: 0; stroke: #cccccc; stroke-opacity: 0.3; stroke-width: 0.8"/>
     </g>
     <g id="text_2">
      <!-- 1300 -->
      <g style="fill: #262626" transform="translate(138.924226 542.308125) scale(0.12 -0.12)">
       <defs>
        <path id="ArialMT-33" d="M 269 1209 
L 831 1284 
Q 928 806 1161 595 
Q 1394 384 1728 384 
Q 2125 384 2398 659 
Q 2672 934 2672 1341 
Q 2672 1728 2419 1979 
Q 2166 2231 1775 2231 
Q 1616 2231 1378 2169 
L 1441 2663 
Q 1497 2656 1531 2656 
Q 1891 2656 2178 2843 
Q 2466 3031 2466 3422 
Q 2466 3731 2256 3934 
Q 2047 4138 1716 4138 
Q 1388 4138 1169 3931 
Q 950 3725 888 3313 
L 325 3413 
Q 428 3978 793 4289 
Q 1159 4600 1703 4600 
Q 2078 4600 2393 4439 
Q 2709 4278 2876 4000 
Q 3044 3722 3044 3409 
Q 3044 3113 2884 2869 
Q 2725 2625 2413 2481 
Q 2819 2388 3044 2092 
Q 3269 1797 3269 1353 
Q 3269 753 2831 336 
Q 2394 -81 1725 -81 
Q 1122 -81 723 278 
Q 325 638 269 1209 
z
" transform="scale(0.015625)"/>
       </defs>
       <use xlink:href="#ArialMT-31"/>
       <use xlink:href="#ArialMT-33" x="55.615234"/>
       <use xlink:href="#ArialMT-30" x="111.230469"/>
       <use xlink:href="#ArialMT-30" x="166.845703"/>
      </g>
     </g>
    </g>
    <g id="xtick_3">
     <g id="line2d_3">
      <path d="M 215.16276 526.71875 
L 215.16276 38.7 
" clip-path="url(#p4a13d89945)" style="fill: none; stroke-dasharray: 2.96,1.28; stroke-dashoffset: 0; stroke: #cccccc; stroke-opacity: 0.3; stroke-width: 0.8"/>
     </g>
     <g id="text_3">
      <!-- 1400 -->
      <g style="fill: #262626" transform="translate(201.81651 542.308125) scale(0.12 -0.12)">
       <defs>
        <path id="ArialMT-34" d="M 2069 0 
L 2069 1097 
L 81 1097 
L 81 1613 
L 2172 4581 
L 2631 4581 
L 2631 1613 
L 3250 1613 
L 3250 1097 
L 2631 1097 
L 2631 0 
L 2069 0 
z
M 2069 1613 
L 2069 3678 
L 634 1613 
L 2069 1613 
z
" transform="scale(0.015625)"/>
       </defs>
       <use xlink:href="#ArialMT-31"/>
       <use xlink:href="#ArialMT-34" x="55.615234"/>
       <use xlink:href="#ArialMT-30" x="111.230469"/>
       <use xlink:href="#ArialMT-30" x="166.845703"/>
      </g>
     </g>
    </g>
    <g id="xtick_4">
     <g id="line2d_4">
      <path d="M 278.055044 526.71875 
L 278.055044 38.7 
" clip-path="url(#p4a13d89945)" style="fill: none; stroke-dasharray: 2.96,1.28; stroke-dashoffset: 0; stroke: #cccccc; stroke-opacity: 0.3; stroke-width: 0.8"/>
     </g>
     <g id="text_4">
      <!-- 1500 -->
      <g style="fill: #262626" transform="translate(264.708794 542.308125) scale(0.12 -0.12)">
       <defs>
        <path id="ArialMT-35" d="M 266 1200 
L 856 1250 
Q 922 819 1161 601 
Q 1400 384 1738 384 
Q 2144 384 2425 690 
Q 2706 997 2706 1503 
Q 2706 1984 2436 2262 
Q 2166 2541 1728 2541 
Q 1456 2541 1237 2417 
Q 1019 2294 894 2097 
L 366 2166 
L 809 4519 
L 3088 4519 
L 3088 3981 
L 1259 3981 
L 1013 2750 
Q 1425 3038 1878 3038 
Q 2478 3038 2890 2622 
Q 3303 2206 3303 1553 
Q 3303 931 2941 478 
Q 2500 -78 1738 -78 
Q 1113 -78 717 272 
Q 322 622 266 1200 
z
" transform="scale(0.015625)"/>
       </defs>
       <use xlink:href="#ArialMT-31"/>
       <use xlink:href="#ArialMT-35" x="55.615234"/>
       <use xlink:href="#ArialMT-30" x="111.230469"/>
       <use xlink:href="#ArialMT-30" x="166.845703"/>
      </g>
     </g>
    </g>
    <g id="xtick_5">
     <g id="line2d_5">
      <path d="M 340.947329 526.71875 
L 340.947329 38.7 
" clip-path="url(#p4a13d89945)" style="fill: none; stroke-dasharray: 2.96,1.28; stroke-dashoffset: 0; stroke: #cccccc; stroke-opacity: 0.3; stroke-width: 0.8"/>
     </g>
     <g id="text_5">
      <!-- 1600 -->
      <g style="fill: #262626" transform="translate(327.601079 542.308125) scale(0.12 -0.12)">
       <defs>
        <path id="ArialMT-36" d="M 3184 3459 
L 2625 3416 
Q 2550 3747 2413 3897 
Q 2184 4138 1850 4138 
Q 1581 4138 1378 3988 
Q 1113 3794 959 3422 
Q 806 3050 800 2363 
Q 1003 2672 1297 2822 
Q 1591 2972 1913 2972 
Q 2475 2972 2870 2558 
Q 3266 2144 3266 1488 
Q 3266 1056 3080 686 
Q 2894 316 2569 119 
Q 2244 -78 1831 -78 
Q 1128 -78 684 439 
Q 241 956 241 2144 
Q 241 3472 731 4075 
Q 1159 4600 1884 4600 
Q 2425 4600 2770 4297 
Q 3116 3994 3184 3459 
z
M 888 1484 
Q 888 1194 1011 928 
Q 1134 663 1356 523 
Q 1578 384 1822 384 
Q 2178 384 2434 671 
Q 2691 959 2691 1453 
Q 2691 1928 2437 2201 
Q 2184 2475 1800 2475 
Q 1419 2475 1153 2201 
Q 888 1928 888 1484 
z
" transform="scale(0.015625)"/>
       </defs>
       <use xlink:href="#ArialMT-31"/>
       <use xlink:href="#ArialMT-36" x="55.615234"/>
       <use xlink:href="#ArialMT-30" x="111.230469"/>
       <use xlink:href="#ArialMT-30" x="166.845703"/>
      </g>
     </g>
    </g>
    <g id="xtick_6">
     <g id="line2d_6">
      <path d="M 403.839613 526.71875 
L 403.839613 38.7 
" clip-path="url(#p4a13d89945)" style="fill: none; stroke-dasharray: 2.96,1.28; stroke-dashoffset: 0; stroke: #cccccc; stroke-opacity: 0.3; stroke-width: 0.8"/>
     </g>
     <g id="text_6">
      <!-- 1700 -->
      <g style="fill: #262626" transform="translate(390.493363 542.308125) scale(0.12 -0.12)">
       <defs>
        <path id="ArialMT-37" d="M 303 3981 
L 303 4522 
L 3269 4522 
L 3269 4084 
Q 2831 3619 2401 2847 
Q 1972 2075 1738 1259 
Q 1569 684 1522 0 
L 944 0 
Q 953 541 1156 1306 
Q 1359 2072 1739 2783 
Q 2119 3494 2547 3981 
L 303 3981 
z
" transform="scale(0.015625)"/>
       </defs>
       <use xlink:href="#ArialMT-31"/>
       <use xlink:href="#ArialMT-37" x="55.615234"/>
       <use xlink:href="#ArialMT-30" x="111.230469"/>
       <use xlink:href="#ArialMT-30" x="166.845703"/>
      </g>
     </g>
    </g>
    <g id="xtick_7">
     <g id="line2d_7">
      <path d="M 466.731897 526.71875 
L 466.731897 38.7 
" clip-path="url(#p4a13d89945)" style="fill: none; stroke-dasharray: 2.96,1.28; stroke-dashoffset: 0; stroke: #cccccc; stroke-opacity: 0.3; stroke-width: 0.8"/>
     </g>
     <g id="text_7">
      <!-- 1800 -->
      <g style="fill: #262626" transform="translate(453.385647 542.308125) scale(0.12 -0.12)">
       <defs>
        <path id="ArialMT-38" d="M 1131 2484 
Q 781 2613 612 2850 
Q 444 3088 444 3419 
Q 444 3919 803 4259 
Q 1163 4600 1759 4600 
Q 2359 4600 2725 4251 
Q 3091 3903 3091 3403 
Q 3091 3084 2923 2848 
Q 2756 2613 2416 2484 
Q 2838 2347 3058 2040 
Q 3278 1734 3278 1309 
Q 3278 722 2862 322 
Q 2447 -78 1769 -78 
Q 1091 -78 675 323 
Q 259 725 259 1325 
Q 259 1772 486 2073 
Q 713 2375 1131 2484 
z
M 1019 3438 
Q 1019 3113 1228 2906 
Q 1438 2700 1772 2700 
Q 2097 2700 2305 2904 
Q 2513 3109 2513 3406 
Q 2513 3716 2298 3927 
Q 2084 4138 1766 4138 
Q 1444 4138 1231 3931 
Q 1019 3725 1019 3438 
z
M 838 1322 
Q 838 1081 952 856 
Q 1066 631 1291 507 
Q 1516 384 1775 384 
Q 2178 384 2440 643 
Q 2703 903 2703 1303 
Q 2703 1709 2433 1975 
Q 2163 2241 1756 2241 
Q 1359 2241 1098 1978 
Q 838 1716 838 1322 
z
" transform="scale(0.015625)"/>
       </defs>
       <use xlink:href="#ArialMT-31"/>
       <use xlink:href="#ArialMT-38" x="55.615234"/>
       <use xlink:href="#ArialMT-30" x="111.230469"/>
       <use xlink:href="#ArialMT-30" x="166.845703"/>
      </g>
     </g>
    </g>
    <g id="xtick_8">
     <g id="line2d_8">
      <path d="M 529.624181 526.71875 
L 529.624181 38.7 
" clip-path="url(#p4a13d89945)" style="fill: none; stroke-dasharray: 2.96,1.28; stroke-dashoffset: 0; stroke: #cccccc; stroke-opacity: 0.3; stroke-width: 0.8"/>
     </g>
     <g id="text_8">
      <!-- 1900 -->
      <g style="fill: #262626" transform="translate(516.277931 542.308125) scale(0.12 -0.12)">
       <defs>
        <path id="ArialMT-39" d="M 350 1059 
L 891 1109 
Q 959 728 1153 556 
Q 1347 384 1650 384 
Q 1909 384 2104 503 
Q 2300 622 2425 820 
Q 2550 1019 2634 1356 
Q 2719 1694 2719 2044 
Q 2719 2081 2716 2156 
Q 2547 1888 2255 1720 
Q 1963 1553 1622 1553 
Q 1053 1553 659 1965 
Q 266 2378 266 3053 
Q 266 3750 677 4175 
Q 1088 4600 1706 4600 
Q 2153 4600 2523 4359 
Q 2894 4119 3086 3673 
Q 3278 3228 3278 2384 
Q 3278 1506 3087 986 
Q 2897 466 2520 194 
Q 2144 -78 1638 -78 
Q 1100 -78 759 220 
Q 419 519 350 1059 
z
M 2653 3081 
Q 2653 3566 2395 3850 
Q 2138 4134 1775 4134 
Q 1400 4134 1122 3828 
Q 844 3522 844 3034 
Q 844 2597 1108 2323 
Q 1372 2050 1759 2050 
Q 2150 2050 2401 2323 
Q 2653 2597 2653 3081 
z
" transform="scale(0.015625)"/>
       </defs>
       <use xlink:href="#ArialMT-31"/>
       <use xlink:href="#ArialMT-39" x="55.615234"/>
       <use xlink:href="#ArialMT-30" x="111.230469"/>
       <use xlink:href="#ArialMT-30" x="166.845703"/>
      </g>
     </g>
    </g>
    <g id="xtick_9">
     <g id="line2d_9">
      <path d="M 592.516466 526.71875 
L 592.516466 38.7 
" clip-path="url(#p4a13d89945)" style="fill: none; stroke-dasharray: 2.96,1.28; stroke-dashoffset: 0; stroke: #cccccc; stroke-opacity: 0.3; stroke-width: 0.8"/>
     </g>
     <g id="text_9">
      <!-- 2000 -->
      <g style="fill: #262626" transform="translate(579.170216 542.308125) scale(0.12 -0.12)">
       <use xlink:href="#ArialMT-32"/>
       <use xlink:href="#ArialMT-30" x="55.615234"/>
       <use xlink:href="#ArialMT-30" x="111.230469"/>
       <use xlink:href="#ArialMT-30" x="166.845703"/>
      </g>
     </g>
    </g>
    <g id="text_10">
     <!-- Custo Total -->
     <g style="fill: #262626" transform="translate(282.325937 558.714062) scale(0.14 -0.14)">
      <defs>
       <path id="Arial-BoldMT-43" d="M 3397 1684 
L 4294 1400 
Q 4088 650 3608 286 
Q 3128 -78 2391 -78 
Q 1478 -78 890 545 
Q 303 1169 303 2250 
Q 303 3394 893 4026 
Q 1484 4659 2447 4659 
Q 3288 4659 3813 4163 
Q 4125 3869 4281 3319 
L 3366 3100 
Q 3284 3456 3026 3662 
Q 2769 3869 2400 3869 
Q 1891 3869 1573 3503 
Q 1256 3138 1256 2319 
Q 1256 1450 1568 1081 
Q 1881 713 2381 713 
Q 2750 713 3015 947 
Q 3281 1181 3397 1684 
z
" transform="scale(0.015625)"/>
       <path id="Arial-BoldMT-75" d="M 2644 0 
L 2644 497 
Q 2463 231 2167 78 
Q 1872 -75 1544 -75 
Q 1209 -75 943 72 
Q 678 219 559 484 
Q 441 750 441 1219 
L 441 3319 
L 1319 3319 
L 1319 1794 
Q 1319 1094 1367 936 
Q 1416 778 1544 686 
Q 1672 594 1869 594 
Q 2094 594 2272 717 
Q 2450 841 2515 1023 
Q 2581 1206 2581 1919 
L 2581 3319 
L 3459 3319 
L 3459 0 
L 2644 0 
z
" transform="scale(0.015625)"/>
       <path id="Arial-BoldMT-73" d="M 150 947 
L 1031 1081 
Q 1088 825 1259 692 
Q 1431 559 1741 559 
Q 2081 559 2253 684 
Q 2369 772 2369 919 
Q 2369 1019 2306 1084 
Q 2241 1147 2013 1200 
Q 950 1434 666 1628 
Q 272 1897 272 2375 
Q 272 2806 612 3100 
Q 953 3394 1669 3394 
Q 2350 3394 2681 3172 
Q 3013 2950 3138 2516 
L 2309 2363 
Q 2256 2556 2107 2659 
Q 1959 2763 1684 2763 
Q 1338 2763 1188 2666 
Q 1088 2597 1088 2488 
Q 1088 2394 1175 2328 
Q 1294 2241 1995 2081 
Q 2697 1922 2975 1691 
Q 3250 1456 3250 1038 
Q 3250 581 2869 253 
Q 2488 -75 1741 -75 
Q 1063 -75 667 200 
Q 272 475 150 947 
z
" transform="scale(0.015625)"/>
       <path id="Arial-BoldMT-74" d="M 1981 3319 
L 1981 2619 
L 1381 2619 
L 1381 1281 
Q 1381 875 1398 808 
Q 1416 741 1477 697 
Q 1538 653 1625 653 
Q 1747 653 1978 738 
L 2053 56 
Q 1747 -75 1359 -75 
Q 1122 -75 931 4 
Q 741 84 652 211 
Q 563 338 528 553 
Q 500 706 500 1172 
L 500 2619 
L 97 2619 
L 97 3319 
L 500 3319 
L 500 3978 
L 1381 4491 
L 1381 3319 
L 1981 3319 
z
" transform="scale(0.015625)"/>
       <path id="Arial-BoldMT-6f" d="M 256 1706 
Q 256 2144 472 2553 
Q 688 2963 1083 3178 
Q 1478 3394 1966 3394 
Q 2719 3394 3200 2905 
Q 3681 2416 3681 1669 
Q 3681 916 3195 420 
Q 2709 -75 1972 -75 
Q 1516 -75 1102 131 
Q 688 338 472 736 
Q 256 1134 256 1706 
z
M 1156 1659 
Q 1156 1166 1390 903 
Q 1625 641 1969 641 
Q 2313 641 2545 903 
Q 2778 1166 2778 1666 
Q 2778 2153 2545 2415 
Q 2313 2678 1969 2678 
Q 1625 2678 1390 2415 
Q 1156 2153 1156 1659 
z
" transform="scale(0.015625)"/>
       <path id="Arial-BoldMT-20" transform="scale(0.015625)"/>
       <path id="Arial-BoldMT-54" d="M 1497 0 
L 1497 3806 
L 138 3806 
L 138 4581 
L 3778 4581 
L 3778 3806 
L 2422 3806 
L 2422 0 
L 1497 0 
z
" transform="scale(0.015625)"/>
       <path id="Arial-BoldMT-61" d="M 1116 2306 
L 319 2450 
Q 453 2931 781 3162 
Q 1109 3394 1756 3394 
Q 2344 3394 2631 3255 
Q 2919 3116 3036 2902 
Q 3153 2688 3153 2116 
L 3144 1091 
Q 3144 653 3186 445 
Q 3228 238 3344 0 
L 2475 0 
Q 2441 88 2391 259 
Q 2369 338 2359 363 
Q 2134 144 1878 34 
Q 1622 -75 1331 -75 
Q 819 -75 523 203 
Q 228 481 228 906 
Q 228 1188 362 1408 
Q 497 1628 739 1745 
Q 981 1863 1438 1950 
Q 2053 2066 2291 2166 
L 2291 2253 
Q 2291 2506 2166 2614 
Q 2041 2722 1694 2722 
Q 1459 2722 1328 2630 
Q 1197 2538 1116 2306 
z
M 2291 1594 
Q 2122 1538 1756 1459 
Q 1391 1381 1278 1306 
Q 1106 1184 1106 997 
Q 1106 813 1243 678 
Q 1381 544 1594 544 
Q 1831 544 2047 700 
Q 2206 819 2256 991 
Q 2291 1103 2291 1419 
L 2291 1594 
z
" transform="scale(0.015625)"/>
       <path id="Arial-BoldMT-6c" d="M 459 0 
L 459 4581 
L 1338 4581 
L 1338 0 
L 459 0 
z
" transform="scale(0.015625)"/>
      </defs>
      <use xlink:href="#Arial-BoldMT-43"/>
      <use xlink:href="#Arial-BoldMT-75" x="72.216797"/>
      <use xlink:href="#Arial-BoldMT-73" x="133.300781"/>
      <use xlink:href="#Arial-BoldMT-74" x="188.916016"/>
      <use xlink:href="#Arial-BoldMT-6f" x="222.216797"/>
      <use xlink:href="#Arial-BoldMT-20" x="283.300781"/>
      <use xlink:href="#Arial-BoldMT-54" x="311.083984"/>
      <use xlink:href="#Arial-BoldMT-6f" x="364.792969"/>
      <use xlink:href="#Arial-BoldMT-74" x="425.876953"/>
      <use xlink:href="#Arial-BoldMT-61" x="459.177734"/>
      <use xlink:href="#Arial-BoldMT-6c" x="514.792969"/>
     </g>
    </g>
   </g>
   <g id="matplotlib.axis_2">
    <g id="ytick_1">
     <g id="line2d_10">
      <path d="M 48.018125 482.336785 
L 592.588125 482.336785 
" clip-path="url(#p4a13d89945)" style="fill: none; stroke-dasharray: 2.96,1.28; stroke-dashoffset: 0; stroke: #cccccc; stroke-opacity: 0.3; stroke-width: 0.8"/>
     </g>
     <g id="text_11">
      <!-- 2.2 -->
      <g style="fill: #262626" transform="translate(24.338125 486.631473) scale(0.12 -0.12)">
       <defs>
        <path id="ArialMT-2e" d="M 581 0 
L 581 641 
L 1222 641 
L 1222 0 
L 581 0 
z
" transform="scale(0.015625)"/>
       </defs>
       <use xlink:href="#ArialMT-32"/>
       <use xlink:href="#ArialMT-2e" x="55.615234"/>
       <use xlink:href="#ArialMT-32" x="83.398438"/>
      </g>
     </g>
    </g>
    <g id="ytick_2">
     <g id="line2d_11">
      <path d="M 48.018125 405.4561 
L 592.588125 405.4561 
" clip-path="url(#p4a13d89945)" style="fill: none; stroke-dasharray: 2.96,1.28; stroke-dashoffset: 0; stroke: #cccccc; stroke-opacity: 0.3; stroke-width: 0.8"/>
     </g>
     <g id="text_12">
      <!-- 2.4 -->
      <g style="fill: #262626" transform="translate(24.338125 409.750787) scale(0.12 -0.12)">
       <use xlink:href="#ArialMT-32"/>
       <use xlink:href="#ArialMT-2e" x="55.615234"/>
       <use xlink:href="#ArialMT-34" x="83.398438"/>
      </g>
     </g>
    </g>
    <g id="ytick_3">
     <g id="line2d_12">
      <path d="M 48.018125 328.575414 
L 592.588125 328.575414 
" clip-path="url(#p4a13d89945)" style="fill: none; stroke-dasharray: 2.96,1.28; stroke-dashoffset: 0; stroke: #cccccc; stroke-opacity: 0.3; stroke-width: 0.8"/>
     </g>
     <g id="text_13">
      <!-- 2.6 -->
      <g style="fill: #262626" transform="translate(24.338125 332.870102) scale(0.12 -0.12)">
       <use xlink:href="#ArialMT-32"/>
       <use xlink:href="#ArialMT-2e" x="55.615234"/>
       <use xlink:href="#ArialMT-36" x="83.398438"/>
      </g>
     </g>
    </g>
    <g id="ytick_4">
     <g id="line2d_13">
      <path d="M 48.018125 251.694729 
L 592.588125 251.694729 
" clip-path="url(#p4a13d89945)" style="fill: none; stroke-dasharray: 2.96,1.28; stroke-dashoffset: 0; stroke: #cccccc; stroke-opacity: 0.3; stroke-width: 0.8"/>
     </g>
     <g id="text_14">
      <!-- 2.8 -->
      <g style="fill: #262626" transform="translate(24.338125 255.989416) scale(0.12 -0.12)">
       <use xlink:href="#ArialMT-32"/>
       <use xlink:href="#ArialMT-2e" x="55.615234"/>
       <use xlink:href="#ArialMT-38" x="83.398438"/>
      </g>
     </g>
    </g>
    <g id="ytick_5">
     <g id="line2d_14">
      <path d="M 48.018125 174.814043 
L 592.588125 174.814043 
" clip-path="url(#p4a13d89945)" style="fill: none; stroke-dasharray: 2.96,1.28; stroke-dashoffset: 0; stroke: #cccccc; stroke-opacity: 0.3; stroke-width: 0.8"/>
     </g>
     <g id="text_15">
      <!-- 3.0 -->
      <g style="fill: #262626" transform="translate(24.338125 179.108731) scale(0.12 -0.12)">
       <use xlink:href="#ArialMT-33"/>
       <use xlink:href="#ArialMT-2e" x="55.615234"/>
       <use xlink:href="#ArialMT-30" x="83.398438"/>
      </g>
     </g>
    </g>
    <g id="ytick_6">
     <g id="line2d_15">
      <path d="M 48.018125 97.933358 
L 592.588125 97.933358 
" clip-path="url(#p4a13d89945)" style="fill: none; stroke-dasharray: 2.96,1.28; stroke-dashoffset: 0; stroke: #cccccc; stroke-opacity: 0.3; stroke-width: 0.8"/>
     </g>
     <g id="text_16">
      <!-- 3.2 -->
      <g style="fill: #262626" transform="translate(24.338125 102.228045) scale(0.12 -0.12)">
       <use xlink:href="#ArialMT-33"/>
       <use xlink:href="#ArialMT-2e" x="55.615234"/>
       <use xlink:href="#ArialMT-32" x="83.398438"/>
      </g>
     </g>
    </g>
    <g id="text_17">
     <!-- Latência Total (s) -->
     <g style="fill: #262626" transform="translate(17.391562 339.752812) rotate(-90) scale(0.14 -0.14)">
      <defs>
       <path id="Arial-BoldMT-4c" d="M 491 0 
L 491 4544 
L 1416 4544 
L 1416 772 
L 3716 772 
L 3716 0 
L 491 0 
z
" transform="scale(0.015625)"/>
       <path id="Arial-BoldMT-ea" d="M 2381 1056 
L 3256 909 
Q 3088 428 2723 176 
Q 2359 -75 1813 -75 
Q 947 -75 531 491 
Q 203 944 203 1634 
Q 203 2459 634 2926 
Q 1066 3394 1725 3394 
Q 2466 3394 2894 2905 
Q 3322 2416 3303 1406 
L 1103 1406 
Q 1113 1016 1316 798 
Q 1519 581 1822 581 
Q 2028 581 2168 693 
Q 2309 806 2381 1056 
z
M 2431 1944 
Q 2422 2325 2234 2523 
Q 2047 2722 1778 2722 
Q 1491 2722 1303 2513 
Q 1116 2303 1119 1944 
L 2431 1944 
z
M 697 3738 
L 1354 4659 
L 2166 4659 
L 2813 3738 
L 2107 3738 
L 1744 4203 
L 1407 3738 
L 697 3738 
z
" transform="scale(0.015625)"/>
       <path id="Arial-BoldMT-6e" d="M 3478 0 
L 2600 0 
L 2600 1694 
Q 2600 2231 2544 2389 
Q 2488 2547 2361 2634 
Q 2234 2722 2056 2722 
Q 1828 2722 1647 2597 
Q 1466 2472 1398 2265 
Q 1331 2059 1331 1503 
L 1331 0 
L 453 0 
L 453 3319 
L 1269 3319 
L 1269 2831 
Q 1703 3394 2363 3394 
Q 2653 3394 2893 3289 
Q 3134 3184 3257 3021 
Q 3381 2859 3429 2653 
Q 3478 2447 3478 2063 
L 3478 0 
z
" transform="scale(0.015625)"/>
       <path id="Arial-BoldMT-63" d="M 3353 2338 
L 2488 2181 
Q 2444 2441 2289 2572 
Q 2134 2703 1888 2703 
Q 1559 2703 1364 2476 
Q 1169 2250 1169 1719 
Q 1169 1128 1367 884 
Q 1566 641 1900 641 
Q 2150 641 2309 783 
Q 2469 925 2534 1272 
L 3397 1125 
Q 3263 531 2881 228 
Q 2500 -75 1859 -75 
Q 1131 -75 698 384 
Q 266 844 266 1656 
Q 266 2478 700 2936 
Q 1134 3394 1875 3394 
Q 2481 3394 2839 3133 
Q 3197 2872 3353 2338 
z
" transform="scale(0.015625)"/>
       <path id="Arial-BoldMT-69" d="M 459 3769 
L 459 4581 
L 1338 4581 
L 1338 3769 
L 459 3769 
z
M 459 0 
L 459 3319 
L 1338 3319 
L 1338 0 
L 459 0 
z
" transform="scale(0.015625)"/>
       <path id="Arial-BoldMT-28" d="M 1916 -1347 
L 1313 -1347 
Q 834 -625 584 153 
Q 334 931 334 1659 
Q 334 2563 644 3369 
Q 913 4069 1325 4659 
L 1925 4659 
Q 1497 3713 1336 3048 
Q 1175 2384 1175 1641 
Q 1175 1128 1270 590 
Q 1366 53 1531 -431 
Q 1641 -750 1916 -1347 
z
" transform="scale(0.015625)"/>
       <path id="Arial-BoldMT-29" d="M 216 -1347 
Q 475 -791 581 -494 
Q 688 -197 778 190 
Q 869 578 912 926 
Q 956 1275 956 1641 
Q 956 2384 797 3048 
Q 638 3713 209 4659 
L 806 4659 
Q 1278 3988 1539 3234 
Q 1800 2481 1800 1706 
Q 1800 1053 1594 306 
Q 1359 -531 822 -1347 
L 216 -1347 
z
" transform="scale(0.015625)"/>
      </defs>
      <use xlink:href="#Arial-BoldMT-4c"/>
      <use xlink:href="#Arial-BoldMT-61" x="61.083984"/>
      <use xlink:href="#Arial-BoldMT-74" x="116.699219"/>
      <use xlink:href="#Arial-BoldMT-ea" x="150"/>
      <use xlink:href="#Arial-BoldMT-6e" x="205.615234"/>
      <use xlink:href="#Arial-BoldMT-63" x="266.699219"/>
      <use xlink:href="#Arial-BoldMT-69" x="322.314453"/>
      <use xlink:href="#Arial-BoldMT-61" x="350.097656"/>
      <use xlink:href="#Arial-BoldMT-20" x="405.712891"/>
      <use xlink:href="#Arial-BoldMT-54" x="433.496094"/>
      <use xlink:href="#Arial-BoldMT-6f" x="487.205078"/>
      <use xlink:href="#Arial-BoldMT-74" x="548.289062"/>
      <use xlink:href="#Arial-BoldMT-61" x="581.589844"/>
      <use xlink:href="#Arial-BoldMT-6c" x="637.205078"/>
      <use xlink:href="#Arial-BoldMT-20" x="664.988281"/>
      <use xlink:href="#Arial-BoldMT-28" x="692.771484"/>
      <use xlink:href="#Arial-BoldMT-73" x="726.072266"/>
      <use xlink:href="#Arial-BoldMT-29" x="781.6875"/>
     </g>
    </g>
    <g id="text_18">
     <!-- 1e8 -->
     <g style="fill: #262626" transform="translate(48.018125 35.7) scale(0.1 -0.1)">
      <defs>
       <path id="ArialMT-65" d="M 2694 1069 
L 3275 997 
Q 3138 488 2766 206 
Q 2394 -75 1816 -75 
Q 1088 -75 661 373 
Q 234 822 234 1631 
Q 234 2469 665 2931 
Q 1097 3394 1784 3394 
Q 2450 3394 2872 2941 
Q 3294 2488 3294 1666 
Q 3294 1616 3291 1516 
L 816 1516 
Q 847 969 1125 678 
Q 1403 388 1819 388 
Q 2128 388 2347 550 
Q 2566 713 2694 1069 
z
M 847 1978 
L 2700 1978 
Q 2663 2397 2488 2606 
Q 2219 2931 1791 2931 
Q 1403 2931 1139 2672 
Q 875 2413 847 1978 
z
" transform="scale(0.015625)"/>
      </defs>
      <use xlink:href="#ArialMT-31"/>
      <use xlink:href="#ArialMT-65" x="55.615234"/>
      <use xlink:href="#ArialMT-38" x="111.230469"/>
     </g>
    </g>
   </g>
   <g id="PathCollection_1">
    <defs>
     <path id="m78fb554c63" d="M 0 7.071068 
C 1.875269 7.071068 3.673985 6.326016 5 5 
C 6.326016 3.673985 7.071068 1.875269 7.071068 0 
C 7.071068 -1.875269 6.326016 -3.673985 5 -5 
C 3.673985 -6.326016 1.875269 -7.071068 0 -7.071068 
C -1.875269 -7.071068 -3.673985 -6.326016 -5 -5 
C -6.326016 -3.673985 -7.071068 -1.875269 -7.071068 0 
C -7.071068 1.875269 -6.326016 3.673985 -5 5 
C -3.673985 6.326016 -1.875269 7.071068 0 7.071068 
z
" style="stroke: #ffffff; stroke-opacity: 0.8"/>
    </defs>
    <g clip-path="url(#p4a13d89945)">
     <use xlink:href="#m78fb554c63" x="547.207292" y="486.050521" style="fill: #1f77b4; fill-opacity: 0.8; stroke: #ffffff; stroke-opacity: 0.8"/>
    </g>
   </g>
   <g id="PathCollection_2">
    <defs>
     <path id="mb4d55004b0" d="M 0 -7.071068 
L -1.587554 -2.18508 
L -6.724985 -2.18508 
L -2.568716 0.834626 
L -4.156269 5.720614 
L -0 2.700907 
L 4.156269 5.720614 
L 2.568716 0.834626 
L 6.724985 -2.18508 
L 1.587554 -2.18508 
z
" style="stroke: #ffffff; stroke-opacity: 0.8"/>
    </defs>
    <g clip-path="url(#p4a13d89945)">
     <use xlink:href="#mb4d55004b0" x="132.927639" y="209.839568" style="fill: #ff7f0e; fill-opacity: 0.8; stroke: #ffffff; stroke-opacity: 0.8"/>
    </g>
   </g>
   <g id="PathCollection_3">
    <defs>
     <path id="m8c54fd4dfa" d="M 0 10 
L 10 0 
L 0 -10 
L -10 0 
z
" style="stroke: #ffffff; stroke-opacity: 0.8"/>
    </defs>
    <g clip-path="url(#p4a13d89945)">
     <use xlink:href="#m8c54fd4dfa" x="535.738192" y="455.772499" style="fill: #2ca02c; fill-opacity: 0.8; stroke: #ffffff; stroke-opacity: 0.8"/>
     <use xlink:href="#m8c54fd4dfa" x="400.465819" y="355.526842" style="fill: #2ca02c; fill-opacity: 0.8; stroke: #ffffff; stroke-opacity: 0.8"/>
     <use xlink:href="#m8c54fd4dfa" x="99.931328" y="144.552446" style="fill: #2ca02c; fill-opacity: 0.8; stroke: #ffffff; stroke-opacity: 0.8"/>
    </g>
   </g>
   <g id="PathCollection_4">
    <defs>
     <path id="mba9a23be82" d="M -0 7.071068 
L 7.071068 -7.071068 
L -7.071068 -7.071068 
z
" style="stroke: #ffffff; stroke-opacity: 0.8"/>
    </defs>
    <g clip-path="url(#p4a13d89945)">
     <use xlink:href="#mba9a23be82" x="314.94879" y="256.609878" style="fill: #8c564b; fill-opacity: 0.8; stroke: #ffffff; stroke-opacity: 0.8"/>
     <use xlink:href="#mba9a23be82" x="97.591798" y="108.809814" style="fill: #8c564b; fill-opacity: 0.8; stroke: #ffffff; stroke-opacity: 0.8"/>
    </g>
   </g>
   <g id="PathCollection_5">
    <defs>
     <path id="m852dfdd6cd" d="M 0 7.071068 
C 1.875269 7.071068 3.673985 6.326016 5 5 
C 6.326016 3.673985 7.071068 1.875269 7.071068 0 
C 7.071068 -1.875269 6.326016 -3.673985 5 -5 
C 3.673985 -6.326016 1.875269 -7.071068 0 -7.071068 
C -1.875269 -7.071068 -3.673985 -6.326016 -5 -5 
C -6.326016 -3.673985 -7.071068 -1.875269 -7.071068 0 
C -7.071068 1.875269 -6.326016 3.673985 -5 5 
C -3.673985 6.326016 -1.875269 7.071068 0 7.071068 
z
" style="stroke: #ffffff; stroke-opacity: 0.8"/>
    </defs>
    <g clip-path="url(#p4a13d89945)">
     <use xlink:href="#m852dfdd6cd" x="482.361888" y="386.13838" style="fill: #333333; fill-opacity: 0.8; stroke: #ffffff; stroke-opacity: 0.8"/>
     <use xlink:href="#m852dfdd6cd" x="103.036132" y="173.820369" style="fill: #333333; fill-opacity: 0.8; stroke: #ffffff; stroke-opacity: 0.8"/>
     <use xlink:href="#m852dfdd6cd" x="93.398958" y="79.368229" style="fill: #333333; fill-opacity: 0.8; stroke: #ffffff; stroke-opacity: 0.8"/>
    </g>
   </g>
   <g id="PathCollection_6">
    <defs>
     <path id="m364049eb11" d="M -7.071068 7.071068 
L 7.071068 7.071068 
L 7.071068 -7.071068 
L -7.071068 -7.071068 
z
" style="stroke: #ffffff; stroke-opacity: 0.8"/>
    </defs>
    <g clip-path="url(#p4a13d89945)">
     <use xlink:href="#m364049eb11" x="129.571141" y="184.225633" style="fill: #d62728; fill-opacity: 0.8; stroke: #ffffff; stroke-opacity: 0.8"/>
    </g>
   </g>
   <g id="PathCollection_7">
    <g clip-path="url(#p4a13d89945)">
     <use xlink:href="#m852dfdd6cd" x="220.051503" y="240.571659" style="fill: #333333; fill-opacity: 0.8; stroke: #ffffff; stroke-opacity: 0.8"/>
    </g>
   </g>
   <g id="patch_3">
    <path d="M 48.018125 526.71875 
L 48.018125 38.7 
" style="fill: none; stroke: #cccccc; stroke-width: 0.8; stroke-linejoin: miter; stroke-linecap: square"/>
   </g>
   <g id="patch_4">
    <path d="M 592.588125 526.71875 
L 592.588125 38.7 
" style="fill: none; stroke: #cccccc; stroke-width: 0.8; stroke-linejoin: miter; stroke-linecap: square"/>
   </g>
   <g id="patch_5">
    <path d="M 48.018125 526.71875 
L 592.588125 526.71875 
" style="fill: none; stroke: #cccccc; stroke-width: 0.8; stroke-linejoin: miter; stroke-linecap: square"/>
   </g>
   <g id="patch_6">
    <path d="M 48.018125 38.7 
L 592.588125 38.7 
" style="fill: none; stroke: #cccccc; stroke-width: 0.8; stroke-linejoin: miter; stroke-linecap: square"/>
   </g>
   <g id="patch_7">
    <path d="M 549.886066 482.82089 
Q 549.143118 483.616945 549.148461 483.61046 
" style="fill: none; stroke: #808080; stroke-linecap: round"/>
    <path d="M 554.053059 481.432176 
L 549.148461 483.61046 
L 550.348593 478.379811 
" style="fill: none; stroke: #808080; stroke-linecap: round"/>
   </g>
   <g id="text_19">
    <g id="patch_8">
     <path d="M 557.207292 484.435521 
L 579.555417 484.435521 
Q 585.555417 484.435521 585.555417 478.435521 
L 585.555417 467.461146 
Q 585.555417 461.461146 579.555417 461.461146 
L 557.207292 461.461146 
Q 551.207292 461.461146 551.207292 467.461146 
L 551.207292 478.435521 
Q 551.207292 484.435521 557.207292 484.435521 
z
" style="fill: #ffffff; opacity: 0.9; stroke: #808080; stroke-linejoin: miter"/>
    </g>
    <!-- w=1 -->
    <g style="fill: #262626" transform="translate(557.207292 476.050521) scale(0.12 -0.12)">
     <defs>
      <path id="ArialMT-77" d="M 1034 0 
L 19 3319 
L 600 3319 
L 1128 1403 
L 1325 691 
Q 1338 744 1497 1375 
L 2025 3319 
L 2603 3319 
L 3100 1394 
L 3266 759 
L 3456 1400 
L 4025 3319 
L 4572 3319 
L 3534 0 
L 2950 0 
L 2422 1988 
L 2294 2553 
L 1622 0 
L 1034 0 
z
" transform="scale(0.015625)"/>
      <path id="ArialMT-3d" d="M 3381 2694 
L 356 2694 
L 356 3219 
L 3381 3219 
L 3381 2694 
z
M 3381 1303 
L 356 1303 
L 356 1828 
L 3381 1828 
L 3381 1303 
z
" transform="scale(0.015625)"/>
     </defs>
     <use xlink:href="#ArialMT-77"/>
     <use xlink:href="#ArialMT-3d" x="72.216797"/>
     <use xlink:href="#ArialMT-31" x="130.615234"/>
    </g>
   </g>
   <g id="patch_9">
    <path d="M 135.606414 206.609937 
Q 134.863465 207.405992 134.868809 207.399507 
" style="fill: none; stroke: #808080; stroke-linecap: round"/>
    <path d="M 139.773407 205.221224 
L 134.868809 207.399507 
L 136.068941 202.168859 
" style="fill: none; stroke: #808080; stroke-linecap: round"/>
   </g>
   <g id="text_20">
    <g id="patch_10">
     <path d="M 142.927639 208.224568 
L 165.275764 208.224568 
Q 171.275764 208.224568 171.275764 202.224568 
L 171.275764 191.250193 
Q 171.275764 185.250193 165.275764 185.250193 
L 142.927639 185.250193 
Q 136.927639 185.250193 136.927639 191.250193 
L 136.927639 202.224568 
Q 136.927639 208.224568 142.927639 208.224568 
z
" style="fill: #ffffff; opacity: 0.9; stroke: #808080; stroke-linejoin: miter"/>
    </g>
    <!-- w=1 -->
    <g style="fill: #262626" transform="translate(142.927639 199.839568) scale(0.12 -0.12)">
     <use xlink:href="#ArialMT-77"/>
     <use xlink:href="#ArialMT-3d" x="72.216797"/>
     <use xlink:href="#ArialMT-31" x="130.615234"/>
    </g>
   </g>
   <g id="patch_11">
    <path d="M 538.416967 452.542868 
Q 537.674018 453.338923 537.679361 453.332438 
" style="fill: none; stroke: #808080; stroke-linecap: round"/>
    <path d="M 542.583959 451.154154 
L 537.679361 453.332438 
L 538.879493 448.101789 
" style="fill: none; stroke: #808080; stroke-linecap: round"/>
   </g>
   <g id="text_21">
    <g id="patch_12">
     <path d="M 545.738192 454.157499 
L 568.086317 454.157499 
Q 574.086317 454.157499 574.086317 448.157499 
L 574.086317 437.183124 
Q 574.086317 431.183124 568.086317 431.183124 
L 545.738192 431.183124 
Q 539.738192 431.183124 539.738192 437.183124 
L 539.738192 448.157499 
Q 539.738192 454.157499 545.738192 454.157499 
z
" style="fill: #ffffff; opacity: 0.9; stroke: #808080; stroke-linejoin: miter"/>
    </g>
    <!-- w=1 -->
    <g style="fill: #262626" transform="translate(545.738192 445.772499) scale(0.12 -0.12)">
     <use xlink:href="#ArialMT-77"/>
     <use xlink:href="#ArialMT-3d" x="72.216797"/>
     <use xlink:href="#ArialMT-31" x="130.615234"/>
    </g>
   </g>
   <g id="patch_13">
    <path d="M 403.199462 352.577246 
Q 402.481862 353.278248 402.54888 353.205838 
" style="fill: none; stroke: #808080; stroke-linecap: round"/>
    <path d="M 407.570675 351.313334 
L 402.54888 353.205838 
L 404.047954 348.052899 
" style="fill: none; stroke: #808080; stroke-linecap: round"/>
   </g>
   <g id="text_22">
    <g id="patch_14">
     <path d="M 410.465819 353.911842 
L 439.487069 353.911842 
Q 445.487069 353.911842 445.487069 347.911842 
L 445.487069 336.937467 
Q 445.487069 330.937467 439.487069 330.937467 
L 410.465819 330.937467 
Q 404.465819 330.937467 404.465819 336.937467 
L 404.465819 347.911842 
Q 404.465819 353.911842 410.465819 353.911842 
z
" style="fill: #ffffff; opacity: 0.9; stroke: #808080; stroke-linejoin: miter"/>
    </g>
    <!-- w=20 -->
    <g style="fill: #262626" transform="translate(410.465819 345.526842) scale(0.12 -0.12)">
     <use xlink:href="#ArialMT-77"/>
     <use xlink:href="#ArialMT-3d" x="72.216797"/>
     <use xlink:href="#ArialMT-32" x="130.615234"/>
     <use xlink:href="#ArialMT-30" x="186.230469"/>
    </g>
   </g>
   <g id="patch_15">
    <path d="M 102.664971 141.602851 
Q 101.947371 142.303852 102.014389 142.231442 
" style="fill: none; stroke: #808080; stroke-linecap: round"/>
    <path d="M 107.036185 140.338938 
L 102.014389 142.231442 
L 103.513463 137.078504 
" style="fill: none; stroke: #808080; stroke-linecap: round"/>
   </g>
   <g id="text_23">
    <g id="patch_16">
     <path d="M 109.931328 142.937446 
L 138.952578 142.937446 
Q 144.952578 142.937446 144.952578 136.937446 
L 144.952578 125.963071 
Q 144.952578 119.963071 138.952578 119.963071 
L 109.931328 119.963071 
Q 103.931328 119.963071 103.931328 125.963071 
L 103.931328 136.937446 
Q 103.931328 142.937446 109.931328 142.937446 
z
" style="fill: #ffffff; opacity: 0.9; stroke: #808080; stroke-linejoin: miter"/>
    </g>
    <!-- w=30 -->
    <g style="fill: #262626" transform="translate(109.931328 134.552446) scale(0.12 -0.12)">
     <use xlink:href="#ArialMT-77"/>
     <use xlink:href="#ArialMT-3d" x="72.216797"/>
     <use xlink:href="#ArialMT-33" x="130.615234"/>
     <use xlink:href="#ArialMT-30" x="186.230469"/>
    </g>
   </g>
   <g id="patch_17">
    <path d="M 317.682433 253.660282 
Q 316.964833 254.361284 317.031851 254.288874 
" style="fill: none; stroke: #808080; stroke-linecap: round"/>
    <path d="M 322.053647 252.39637 
L 317.031851 254.288874 
L 318.530925 249.135936 
" style="fill: none; stroke: #808080; stroke-linecap: round"/>
   </g>
   <g id="text_24">
    <g id="patch_18">
     <path d="M 324.94879 254.994878 
L 353.97004 254.994878 
Q 359.97004 254.994878 359.97004 248.994878 
L 359.97004 238.020503 
Q 359.97004 232.020503 353.97004 232.020503 
L 324.94879 232.020503 
Q 318.94879 232.020503 318.94879 238.020503 
L 318.94879 248.994878 
Q 318.94879 254.994878 324.94879 254.994878 
z
" style="fill: #ffffff; opacity: 0.9; stroke: #808080; stroke-linejoin: miter"/>
    </g>
    <!-- w=10 -->
    <g style="fill: #262626" transform="translate(324.94879 246.609878) scale(0.12 -0.12)">
     <use xlink:href="#ArialMT-77"/>
     <use xlink:href="#ArialMT-3d" x="72.216797"/>
     <use xlink:href="#ArialMT-31" x="130.615234"/>
     <use xlink:href="#ArialMT-30" x="186.230469"/>
    </g>
   </g>
   <g id="patch_19">
    <path d="M 100.325441 105.860218 
Q 99.607841 106.561219 99.674859 106.48881 
" style="fill: none; stroke: #808080; stroke-linecap: round"/>
    <path d="M 104.696655 104.596306 
L 99.674859 106.48881 
L 101.173933 101.335871 
" style="fill: none; stroke: #808080; stroke-linecap: round"/>
   </g>
   <g id="text_25">
    <g id="patch_20">
     <path d="M 107.591798 107.194814 
L 136.613048 107.194814 
Q 142.613048 107.194814 142.613048 101.194814 
L 142.613048 90.220439 
Q 142.613048 84.220439 136.613048 84.220439 
L 107.591798 84.220439 
Q 101.591798 84.220439 101.591798 90.220439 
L 101.591798 101.194814 
Q 101.591798 107.194814 107.591798 107.194814 
z
" style="fill: #ffffff; opacity: 0.9; stroke: #808080; stroke-linejoin: miter"/>
    </g>
    <!-- w=40 -->
    <g style="fill: #262626" transform="translate(107.591798 98.809814) scale(0.12 -0.12)">
     <use xlink:href="#ArialMT-77"/>
     <use xlink:href="#ArialMT-3d" x="72.216797"/>
     <use xlink:href="#ArialMT-34" x="130.615234"/>
     <use xlink:href="#ArialMT-30" x="186.230469"/>
    </g>
   </g>
   <g id="patch_21">
    <path d="M 485.09553 383.188784 
Q 484.37793 383.889786 484.444949 383.817376 
" style="fill: none; stroke: #808080; stroke-linecap: round"/>
    <path d="M 489.466744 381.924872 
L 484.444949 383.817376 
L 485.944022 378.664438 
" style="fill: none; stroke: #808080; stroke-linecap: round"/>
   </g>
   <g id="text_26">
    <g id="patch_22">
     <path d="M 492.361888 384.52338 
L 521.383138 384.52338 
Q 527.383138 384.52338 527.383138 378.52338 
L 527.383138 367.549005 
Q 527.383138 361.549005 521.383138 361.549005 
L 492.361888 361.549005 
Q 486.361888 361.549005 486.361888 367.549005 
L 486.361888 378.52338 
Q 486.361888 384.52338 492.361888 384.52338 
z
" style="fill: #ffffff; opacity: 0.9; stroke: #808080; stroke-linejoin: miter"/>
    </g>
    <!-- w=20 -->
    <g style="fill: #262626" transform="translate(492.361888 376.13838) scale(0.12 -0.12)">
     <use xlink:href="#ArialMT-77"/>
     <use xlink:href="#ArialMT-3d" x="72.216797"/>
     <use xlink:href="#ArialMT-32" x="130.615234"/>
     <use xlink:href="#ArialMT-30" x="186.230469"/>
    </g>
   </g>
   <g id="patch_23">
    <path d="M 105.769774 170.870774 
Q 105.052175 171.571775 105.119193 171.499365 
" style="fill: none; stroke: #808080; stroke-linecap: round"/>
    <path d="M 110.140988 169.606861 
L 105.119193 171.499365 
L 106.618267 166.346427 
" style="fill: none; stroke: #808080; stroke-linecap: round"/>
   </g>
   <g id="text_27">
    <g id="patch_24">
     <path d="M 113.036132 172.205369 
L 142.057382 172.205369 
Q 148.057382 172.205369 148.057382 166.205369 
L 148.057382 155.230994 
Q 148.057382 149.230994 142.057382 149.230994 
L 113.036132 149.230994 
Q 107.036132 149.230994 107.036132 155.230994 
L 107.036132 166.205369 
Q 107.036132 172.205369 113.036132 172.205369 
z
" style="fill: #ffffff; opacity: 0.9; stroke: #808080; stroke-linejoin: miter"/>
    </g>
    <!-- w=30 -->
    <g style="fill: #262626" transform="translate(113.036132 163.820369) scale(0.12 -0.12)">
     <use xlink:href="#ArialMT-77"/>
     <use xlink:href="#ArialMT-3d" x="72.216797"/>
     <use xlink:href="#ArialMT-33" x="130.615234"/>
     <use xlink:href="#ArialMT-30" x="186.230469"/>
    </g>
   </g>
   <g id="patch_25">
    <path d="M 96.132601 76.418633 
Q 95.415001 77.119635 95.482019 77.047225 
" style="fill: none; stroke: #808080; stroke-linecap: round"/>
    <path d="M 100.503815 75.154721 
L 95.482019 77.047225 
L 96.981093 71.894286 
" style="fill: none; stroke: #808080; stroke-linecap: round"/>
   </g>
   <g id="text_28">
    <g id="patch_26">
     <path d="M 103.398958 77.753229 
L 132.420208 77.753229 
Q 138.420208 77.753229 138.420208 71.753229 
L 138.420208 60.778854 
Q 138.420208 54.778854 132.420208 54.778854 
L 103.398958 54.778854 
Q 97.398958 54.778854 97.398958 60.778854 
L 97.398958 71.753229 
Q 97.398958 77.753229 103.398958 77.753229 
z
" style="fill: #ffffff; opacity: 0.9; stroke: #808080; stroke-linejoin: miter"/>
    </g>
    <!-- w=40 -->
    <g style="fill: #262626" transform="translate(103.398958 69.368229) scale(0.12 -0.12)">
     <use xlink:href="#ArialMT-77"/>
     <use xlink:href="#ArialMT-3d" x="72.216797"/>
     <use xlink:href="#ArialMT-34" x="130.615234"/>
     <use xlink:href="#ArialMT-30" x="186.230469"/>
    </g>
   </g>
   <g id="patch_27">
    <path d="M 132.304784 181.276038 
Q 131.587184 181.977039 131.654202 181.904629 
" style="fill: none; stroke: #808080; stroke-linecap: round"/>
    <path d="M 136.675997 180.012125 
L 131.654202 181.904629 
L 133.153276 176.751691 
" style="fill: none; stroke: #808080; stroke-linecap: round"/>
   </g>
   <g id="text_29">
    <g id="patch_28">
     <path d="M 139.571141 182.610633 
L 168.592391 182.610633 
Q 174.592391 182.610633 174.592391 176.610633 
L 174.592391 165.636258 
Q 174.592391 159.636258 168.592391 159.636258 
L 139.571141 159.636258 
Q 133.571141 159.636258 133.571141 165.636258 
L 133.571141 176.610633 
Q 133.571141 182.610633 139.571141 182.610633 
z
" style="fill: #ffffff; opacity: 0.9; stroke: #808080; stroke-linejoin: miter"/>
    </g>
    <!-- w=20 -->
    <g style="fill: #262626" transform="translate(139.571141 174.225633) scale(0.12 -0.12)">
     <use xlink:href="#ArialMT-77"/>
     <use xlink:href="#ArialMT-3d" x="72.216797"/>
     <use xlink:href="#ArialMT-32" x="130.615234"/>
     <use xlink:href="#ArialMT-30" x="186.230469"/>
    </g>
   </g>
   <g id="patch_29">
    <path d="M 222.785146 237.622063 
Q 222.067546 238.323064 222.134564 238.250655 
" style="fill: none; stroke: #808080; stroke-linecap: round"/>
    <path d="M 227.15636 236.35815 
L 222.134564 238.250655 
L 223.633638 233.097716 
" style="fill: none; stroke: #808080; stroke-linecap: round"/>
   </g>
   <g id="text_30">
    <g id="patch_30">
     <path d="M 230.051503 238.956659 
L 259.072753 238.956659 
Q 265.072753 238.956659 265.072753 232.956659 
L 265.072753 221.982284 
Q 265.072753 215.982284 259.072753 215.982284 
L 230.051503 215.982284 
Q 224.051503 215.982284 224.051503 221.982284 
L 224.051503 232.956659 
Q 224.051503 238.956659 230.051503 238.956659 
z
" style="fill: #ffffff; opacity: 0.9; stroke: #808080; stroke-linejoin: miter"/>
    </g>
    <!-- w=50 -->
    <g style="fill: #262626" transform="translate(230.051503 230.571659) scale(0.12 -0.12)">
     <use xlink:href="#ArialMT-77"/>
     <use xlink:href="#ArialMT-3d" x="72.216797"/>
     <use xlink:href="#ArialMT-35" x="130.615234"/>
     <use xlink:href="#ArialMT-30" x="186.230469"/>
    </g>
   </g>
   <g id="text_31">
    <!-- Fronteira de Pareto - Pop1 -->
    <g style="fill: #262626" transform="translate(220.289375 18.7) scale(0.16 -0.16)">
     <defs>
      <path id="Arial-BoldMT-46" d="M 472 0 
L 472 4581 
L 3613 4581 
L 3613 3806 
L 1397 3806 
L 1397 2722 
L 3309 2722 
L 3309 1947 
L 1397 1947 
L 1397 0 
L 472 0 
z
" transform="scale(0.015625)"/>
      <path id="Arial-BoldMT-72" d="M 1300 0 
L 422 0 
L 422 3319 
L 1238 3319 
L 1238 2847 
Q 1447 3181 1614 3287 
Q 1781 3394 1994 3394 
Q 2294 3394 2572 3228 
L 2300 2463 
Q 2078 2606 1888 2606 
Q 1703 2606 1575 2504 
Q 1447 2403 1373 2137 
Q 1300 1872 1300 1025 
L 1300 0 
z
" transform="scale(0.015625)"/>
      <path id="Arial-BoldMT-65" d="M 2381 1056 
L 3256 909 
Q 3088 428 2723 176 
Q 2359 -75 1813 -75 
Q 947 -75 531 491 
Q 203 944 203 1634 
Q 203 2459 634 2926 
Q 1066 3394 1725 3394 
Q 2466 3394 2894 2905 
Q 3322 2416 3303 1406 
L 1103 1406 
Q 1113 1016 1316 798 
Q 1519 581 1822 581 
Q 2028 581 2168 693 
Q 2309 806 2381 1056 
z
M 2431 1944 
Q 2422 2325 2234 2523 
Q 2047 2722 1778 2722 
Q 1491 2722 1303 2513 
Q 1116 2303 1119 1944 
L 2431 1944 
z
" transform="scale(0.015625)"/>
      <path id="Arial-BoldMT-64" d="M 3503 0 
L 2688 0 
L 2688 488 
Q 2484 203 2207 64 
Q 1931 -75 1650 -75 
Q 1078 -75 670 386 
Q 263 847 263 1672 
Q 263 2516 659 2955 
Q 1056 3394 1663 3394 
Q 2219 3394 2625 2931 
L 2625 4581 
L 3503 4581 
L 3503 0 
z
M 1159 1731 
Q 1159 1200 1306 963 
Q 1519 619 1900 619 
Q 2203 619 2415 876 
Q 2628 1134 2628 1647 
Q 2628 2219 2422 2470 
Q 2216 2722 1894 2722 
Q 1581 2722 1370 2473 
Q 1159 2225 1159 1731 
z
" transform="scale(0.015625)"/>
      <path id="Arial-BoldMT-50" d="M 466 0 
L 466 4581 
L 1950 4581 
Q 2794 4581 3050 4513 
Q 3444 4409 3709 4064 
Q 3975 3719 3975 3172 
Q 3975 2750 3822 2462 
Q 3669 2175 3433 2011 
Q 3197 1847 2953 1794 
Q 2622 1728 1994 1728 
L 1391 1728 
L 1391 0 
L 466 0 
z
M 1391 3806 
L 1391 2506 
L 1897 2506 
Q 2444 2506 2628 2578 
Q 2813 2650 2917 2803 
Q 3022 2956 3022 3159 
Q 3022 3409 2875 3571 
Q 2728 3734 2503 3775 
Q 2338 3806 1838 3806 
L 1391 3806 
z
" transform="scale(0.015625)"/>
      <path id="Arial-BoldMT-2d" d="M 359 1222 
L 359 2100 
L 2084 2100 
L 2084 1222 
L 359 1222 
z
" transform="scale(0.015625)"/>
      <path id="Arial-BoldMT-70" d="M 434 3319 
L 1253 3319 
L 1253 2831 
Q 1413 3081 1684 3237 
Q 1956 3394 2288 3394 
Q 2866 3394 3269 2941 
Q 3672 2488 3672 1678 
Q 3672 847 3265 386 
Q 2859 -75 2281 -75 
Q 2006 -75 1782 34 
Q 1559 144 1313 409 
L 1313 -1263 
L 434 -1263 
L 434 3319 
z
M 1303 1716 
Q 1303 1156 1525 889 
Q 1747 622 2066 622 
Q 2372 622 2575 867 
Q 2778 1113 2778 1672 
Q 2778 2194 2568 2447 
Q 2359 2700 2050 2700 
Q 1728 2700 1515 2451 
Q 1303 2203 1303 1716 
z
" transform="scale(0.015625)"/>
      <path id="Arial-BoldMT-31" d="M 2519 0 
L 1641 0 
L 1641 3309 
Q 1159 2859 506 2644 
L 506 3441 
Q 850 3553 1253 3867 
Q 1656 4181 1806 4600 
L 2519 4600 
L 2519 0 
z
" transform="scale(0.015625)"/>
     </defs>
     <use xlink:href="#Arial-BoldMT-46"/>
     <use xlink:href="#Arial-BoldMT-72" x="61.083984"/>
     <use xlink:href="#Arial-BoldMT-6f" x="100"/>
     <use xlink:href="#Arial-BoldMT-6e" x="161.083984"/>
     <use xlink:href="#Arial-BoldMT-74" x="222.167969"/>
     <use xlink:href="#Arial-BoldMT-65" x="255.46875"/>
     <use xlink:href="#Arial-BoldMT-69" x="311.083984"/>
     <use xlink:href="#Arial-BoldMT-72" x="338.867188"/>
     <use xlink:href="#Arial-BoldMT-61" x="377.783203"/>
     <use xlink:href="#Arial-BoldMT-20" x="433.398438"/>
     <use xlink:href="#Arial-BoldMT-64" x="461.181641"/>
     <use xlink:href="#Arial-BoldMT-65" x="522.265625"/>
     <use xlink:href="#Arial-BoldMT-20" x="577.880859"/>
     <use xlink:href="#Arial-BoldMT-50" x="605.664062"/>
     <use xlink:href="#Arial-BoldMT-61" x="672.363281"/>
     <use xlink:href="#Arial-BoldMT-72" x="727.978516"/>
     <use xlink:href="#Arial-BoldMT-65" x="766.894531"/>
     <use xlink:href="#Arial-BoldMT-74" x="822.509766"/>
     <use xlink:href="#Arial-BoldMT-6f" x="855.810547"/>
     <use xlink:href="#Arial-BoldMT-20" x="916.894531"/>
     <use xlink:href="#Arial-BoldMT-2d" x="944.677734"/>
     <use xlink:href="#Arial-BoldMT-20" x="977.978516"/>
     <use xlink:href="#Arial-BoldMT-50" x="1005.761719"/>
     <use xlink:href="#Arial-BoldMT-6f" x="1072.460938"/>
     <use xlink:href="#Arial-BoldMT-70" x="1133.544922"/>
     <use xlink:href="#Arial-BoldMT-31" x="1194.628906"/>
    </g>
   </g>
   <g id="legend_1">
    <g id="patch_31">
     <path d="M 624.216625 163.120625 
L 704.62975 163.120625 
Q 707.02975 163.120625 707.02975 160.720625 
L 707.02975 43.1 
Q 707.02975 40.7 704.62975 40.7 
L 624.216625 40.7 
Q 621.816625 40.7 621.816625 43.1 
L 621.816625 160.720625 
Q 621.816625 163.120625 624.216625 163.120625 
z
" style="fill: #4d4d4d; opacity: 0.5; stroke: #4d4d4d; stroke-linejoin: miter"/>
    </g>
    <g id="patch_32">
     <path d="M 622.216625 161.120625 
L 702.62975 161.120625 
Q 705.02975 161.120625 705.02975 158.720625 
L 705.02975 41.1 
Q 705.02975 38.7 702.62975 38.7 
L 622.216625 38.7 
Q 619.816625 38.7 619.816625 41.1 
L 619.816625 158.720625 
Q 619.816625 161.120625 622.216625 161.120625 
z
" style="fill: #ffffff; stroke: #cccccc; stroke-linejoin: miter"/>
    </g>
    <g id="PathCollection_8">
     <g>
      <use xlink:href="#m78fb554c63" x="636.616625" y="48.939375" style="fill: #1f77b4; fill-opacity: 0.8; stroke: #ffffff; stroke-opacity: 0.8"/>
     </g>
    </g>
    <g id="text_32">
     <!-- AHL -->
     <g style="fill: #262626" transform="translate(658.216625 52.089375) scale(0.12 -0.12)">
      <defs>
       <path id="ArialMT-41" d="M -9 0 
L 1750 4581 
L 2403 4581 
L 4278 0 
L 3588 0 
L 3053 1388 
L 1138 1388 
L 634 0 
L -9 0 
z
M 1313 1881 
L 2866 1881 
L 2388 3150 
Q 2169 3728 2063 4100 
Q 1975 3659 1816 3225 
L 1313 1881 
z
" transform="scale(0.015625)"/>
       <path id="ArialMT-48" d="M 513 0 
L 513 4581 
L 1119 4581 
L 1119 2700 
L 3500 2700 
L 3500 4581 
L 4106 4581 
L 4106 0 
L 3500 0 
L 3500 2159 
L 1119 2159 
L 1119 0 
L 513 0 
z
" transform="scale(0.015625)"/>
       <path id="ArialMT-4c" d="M 469 0 
L 469 4581 
L 1075 4581 
L 1075 541 
L 3331 541 
L 3331 0 
L 469 0 
z
" transform="scale(0.015625)"/>
      </defs>
      <use xlink:href="#ArialMT-41"/>
      <use xlink:href="#ArialMT-48" x="66.699219"/>
      <use xlink:href="#ArialMT-4c" x="138.916016"/>
     </g>
    </g>
    <g id="PathCollection_9">
     <g>
      <use xlink:href="#mb4d55004b0" x="636.616625" y="65.91375" style="fill: #ff7f0e; fill-opacity: 0.8; stroke: #ffffff; stroke-opacity: 0.8"/>
     </g>
    </g>
    <g id="text_33">
     <!-- ONL -->
     <g style="fill: #262626" transform="translate(658.216625 69.06375) scale(0.12 -0.12)">
      <defs>
       <path id="ArialMT-4f" d="M 309 2231 
Q 309 3372 921 4017 
Q 1534 4663 2503 4663 
Q 3138 4663 3647 4359 
Q 4156 4056 4423 3514 
Q 4691 2972 4691 2284 
Q 4691 1588 4409 1038 
Q 4128 488 3612 205 
Q 3097 -78 2500 -78 
Q 1853 -78 1343 234 
Q 834 547 571 1087 
Q 309 1628 309 2231 
z
M 934 2222 
Q 934 1394 1379 917 
Q 1825 441 2497 441 
Q 3181 441 3623 922 
Q 4066 1403 4066 2288 
Q 4066 2847 3877 3264 
Q 3688 3681 3323 3911 
Q 2959 4141 2506 4141 
Q 1863 4141 1398 3698 
Q 934 3256 934 2222 
z
" transform="scale(0.015625)"/>
       <path id="ArialMT-4e" d="M 488 0 
L 488 4581 
L 1109 4581 
L 3516 984 
L 3516 4581 
L 4097 4581 
L 4097 0 
L 3475 0 
L 1069 3600 
L 1069 0 
L 488 0 
z
" transform="scale(0.015625)"/>
      </defs>
      <use xlink:href="#ArialMT-4f"/>
      <use xlink:href="#ArialMT-4e" x="77.783203"/>
      <use xlink:href="#ArialMT-4c" x="150"/>
     </g>
    </g>
    <g id="PathCollection_10">
     <g>
      <use xlink:href="#m8c54fd4dfa" x="636.616625" y="82.888125" style="fill: #2ca02c; fill-opacity: 0.8; stroke: #ffffff; stroke-opacity: 0.8"/>
     </g>
    </g>
    <g id="text_34">
     <!-- SVML -->
     <g style="fill: #262626" transform="translate(658.216625 86.038125) scale(0.12 -0.12)">
      <defs>
       <path id="ArialMT-53" d="M 288 1472 
L 859 1522 
Q 900 1178 1048 958 
Q 1197 738 1509 602 
Q 1822 466 2213 466 
Q 2559 466 2825 569 
Q 3091 672 3220 851 
Q 3350 1031 3350 1244 
Q 3350 1459 3225 1620 
Q 3100 1781 2813 1891 
Q 2628 1963 1997 2114 
Q 1366 2266 1113 2400 
Q 784 2572 623 2826 
Q 463 3081 463 3397 
Q 463 3744 659 4045 
Q 856 4347 1234 4503 
Q 1613 4659 2075 4659 
Q 2584 4659 2973 4495 
Q 3363 4331 3572 4012 
Q 3781 3694 3797 3291 
L 3216 3247 
Q 3169 3681 2898 3903 
Q 2628 4125 2100 4125 
Q 1550 4125 1298 3923 
Q 1047 3722 1047 3438 
Q 1047 3191 1225 3031 
Q 1400 2872 2139 2705 
Q 2878 2538 3153 2413 
Q 3553 2228 3743 1945 
Q 3934 1663 3934 1294 
Q 3934 928 3725 604 
Q 3516 281 3123 101 
Q 2731 -78 2241 -78 
Q 1619 -78 1198 103 
Q 778 284 539 648 
Q 300 1013 288 1472 
z
" transform="scale(0.015625)"/>
       <path id="ArialMT-56" d="M 1803 0 
L 28 4581 
L 684 4581 
L 1875 1253 
Q 2019 853 2116 503 
Q 2222 878 2363 1253 
L 3600 4581 
L 4219 4581 
L 2425 0 
L 1803 0 
z
" transform="scale(0.015625)"/>
       <path id="ArialMT-4d" d="M 475 0 
L 475 4581 
L 1388 4581 
L 2472 1338 
Q 2622 884 2691 659 
Q 2769 909 2934 1394 
L 4031 4581 
L 4847 4581 
L 4847 0 
L 4263 0 
L 4263 3834 
L 2931 0 
L 2384 0 
L 1059 3900 
L 1059 0 
L 475 0 
z
" transform="scale(0.015625)"/>
      </defs>
      <use xlink:href="#ArialMT-53"/>
      <use xlink:href="#ArialMT-56" x="66.699219"/>
      <use xlink:href="#ArialMT-4d" x="133.398438"/>
      <use xlink:href="#ArialMT-4c" x="216.699219"/>
     </g>
    </g>
    <g id="PathCollection_11">
     <g>
      <use xlink:href="#mba9a23be82" x="636.616625" y="99.8625" style="fill: #8c564b; fill-opacity: 0.8; stroke: #ffffff; stroke-opacity: 0.8"/>
     </g>
    </g>
    <g id="text_35">
     <!-- SVMR -->
     <g style="fill: #262626" transform="translate(658.216625 103.0125) scale(0.12 -0.12)">
      <defs>
       <path id="ArialMT-52" d="M 503 0 
L 503 4581 
L 2534 4581 
Q 3147 4581 3465 4457 
Q 3784 4334 3975 4021 
Q 4166 3709 4166 3331 
Q 4166 2844 3850 2509 
Q 3534 2175 2875 2084 
Q 3116 1969 3241 1856 
Q 3506 1613 3744 1247 
L 4541 0 
L 3778 0 
L 3172 953 
Q 2906 1366 2734 1584 
Q 2563 1803 2427 1890 
Q 2291 1978 2150 2013 
Q 2047 2034 1813 2034 
L 1109 2034 
L 1109 0 
L 503 0 
z
M 1109 2559 
L 2413 2559 
Q 2828 2559 3062 2645 
Q 3297 2731 3419 2920 
Q 3541 3109 3541 3331 
Q 3541 3656 3305 3865 
Q 3069 4075 2559 4075 
L 1109 4075 
L 1109 2559 
z
" transform="scale(0.015625)"/>
      </defs>
      <use xlink:href="#ArialMT-53"/>
      <use xlink:href="#ArialMT-56" x="66.699219"/>
      <use xlink:href="#ArialMT-4d" x="133.398438"/>
      <use xlink:href="#ArialMT-52" x="216.699219"/>
     </g>
    </g>
    <g id="PathCollection_12">
     <g>
      <use xlink:href="#m852dfdd6cd" x="636.616625" y="116.836875" style="fill: #333333; fill-opacity: 0.8; stroke: #ffffff; stroke-opacity: 0.8"/>
     </g>
    </g>
    <g id="text_36">
     <!-- LR -->
     <g style="fill: #262626" transform="translate(658.216625 119.986875) scale(0.12 -0.12)">
      <use xlink:href="#ArialMT-4c"/>
      <use xlink:href="#ArialMT-52" x="55.615234"/>
     </g>
    </g>
    <g id="PathCollection_13">
     <g>
      <use xlink:href="#m364049eb11" x="636.616625" y="133.81125" style="fill: #d62728; fill-opacity: 0.8; stroke: #ffffff; stroke-opacity: 0.8"/>
     </g>
    </g>
    <g id="text_37">
     <!-- SV-Grid -->
     <g style="fill: #262626" transform="translate(658.216625 136.96125) scale(0.12 -0.12)">
      <defs>
       <path id="ArialMT-2d" d="M 203 1375 
L 203 1941 
L 1931 1941 
L 1931 1375 
L 203 1375 
z
" transform="scale(0.015625)"/>
       <path id="ArialMT-47" d="M 2638 1797 
L 2638 2334 
L 4578 2338 
L 4578 638 
Q 4131 281 3656 101 
Q 3181 -78 2681 -78 
Q 2006 -78 1454 211 
Q 903 500 622 1047 
Q 341 1594 341 2269 
Q 341 2938 620 3517 
Q 900 4097 1425 4378 
Q 1950 4659 2634 4659 
Q 3131 4659 3532 4498 
Q 3934 4338 4162 4050 
Q 4391 3763 4509 3300 
L 3963 3150 
Q 3859 3500 3706 3700 
Q 3553 3900 3268 4020 
Q 2984 4141 2638 4141 
Q 2222 4141 1919 4014 
Q 1616 3888 1430 3681 
Q 1244 3475 1141 3228 
Q 966 2803 966 2306 
Q 966 1694 1177 1281 
Q 1388 869 1791 669 
Q 2194 469 2647 469 
Q 3041 469 3416 620 
Q 3791 772 3984 944 
L 3984 1797 
L 2638 1797 
z
" transform="scale(0.015625)"/>
       <path id="ArialMT-72" d="M 416 0 
L 416 3319 
L 922 3319 
L 922 2816 
Q 1116 3169 1280 3281 
Q 1444 3394 1641 3394 
Q 1925 3394 2219 3213 
L 2025 2691 
Q 1819 2813 1613 2813 
Q 1428 2813 1281 2702 
Q 1134 2591 1072 2394 
Q 978 2094 978 1738 
L 978 0 
L 416 0 
z
" transform="scale(0.015625)"/>
       <path id="ArialMT-69" d="M 425 3934 
L 425 4581 
L 988 4581 
L 988 3934 
L 425 3934 
z
M 425 0 
L 425 3319 
L 988 3319 
L 988 0 
L 425 0 
z
" transform="scale(0.015625)"/>
       <path id="ArialMT-64" d="M 2575 0 
L 2575 419 
Q 2259 -75 1647 -75 
Q 1250 -75 917 144 
Q 584 363 401 755 
Q 219 1147 219 1656 
Q 219 2153 384 2558 
Q 550 2963 881 3178 
Q 1213 3394 1622 3394 
Q 1922 3394 2156 3267 
Q 2391 3141 2538 2938 
L 2538 4581 
L 3097 4581 
L 3097 0 
L 2575 0 
z
M 797 1656 
Q 797 1019 1065 703 
Q 1334 388 1700 388 
Q 2069 388 2326 689 
Q 2584 991 2584 1609 
Q 2584 2291 2321 2609 
Q 2059 2928 1675 2928 
Q 1300 2928 1048 2622 
Q 797 2316 797 1656 
z
" transform="scale(0.015625)"/>
      </defs>
      <use xlink:href="#ArialMT-53"/>
      <use xlink:href="#ArialMT-56" x="66.699219"/>
      <use xlink:href="#ArialMT-2d" x="127.898438"/>
      <use xlink:href="#ArialMT-47" x="161.199219"/>
      <use xlink:href="#ArialMT-72" x="238.982422"/>
      <use xlink:href="#ArialMT-69" x="272.283203"/>
      <use xlink:href="#ArialMT-64" x="294.5"/>
     </g>
    </g>
    <g id="PathCollection_14">
     <g>
      <use xlink:href="#m852dfdd6cd" x="636.616625" y="150.785625" style="fill: #333333; fill-opacity: 0.8; stroke: #ffffff; stroke-opacity: 0.8"/>
     </g>
    </g>
    <g id="text_38">
     <!-- KNN -->
     <g style="fill: #262626" transform="translate(658.216625 153.935625) scale(0.12 -0.12)">
      <defs>
       <path id="ArialMT-4b" d="M 469 0 
L 469 4581 
L 1075 4581 
L 1075 2309 
L 3350 4581 
L 4172 4581 
L 2250 2725 
L 4256 0 
L 3456 0 
L 1825 2319 
L 1075 1588 
L 1075 0 
L 469 0 
z
" transform="scale(0.015625)"/>
      </defs>
      <use xlink:href="#ArialMT-4b"/>
      <use xlink:href="#ArialMT-4e" x="66.699219"/>
      <use xlink:href="#ArialMT-4e" x="138.916016"/>
     </g>
    </g>
   </g>
  </g>
 </g>
 <defs>
  <clipPath id="p4a13d89945">
   <rect x="48.018125" y="38.7" width="544.57" height="488.01875"/>
  </clipPath>
 </defs>
</svg>
